<svg width="78" height="78" viewBox="0 0 78 78" fill="none" xmlns="http://www.w3.org/2000/svg">
<g filter="url(#filter0_d_78_507)">
<rect x="4" width="70" height="70" rx="10" fill="#282829"/>
</g>
<g clip-path="url(#clip0_78_507)">
<path d="M24.6914 46.7945L27.3576 34.1886C27.4605 33.7023 27.1496 33.2247 26.6633 33.1219C26.177 33.019 25.6994 33.3299 25.5966 33.8162L22.9303 46.422C22.8274 46.9083 23.1383 47.3859 23.6246 47.4888C24.1109 47.5916 24.5885 47.2808 24.6914 46.7945ZM49.7869 34.1916L52.5018 46.8069C52.6064 47.2928 53.0851 47.602 53.571 47.4974C54.0569 47.3928 54.3661 46.9141 54.2615 46.4282L51.5466 33.8129C51.442 33.327 50.9633 33.0178 50.4774 33.1224C49.9915 33.227 49.6823 33.7057 49.7869 34.1916Z" fill="#F5CB5C" stroke="#F5CB5C" stroke-width="1.5"/>
<path d="M58.515 29.0025L39.5504 21.1462C39.0842 20.9529 38.207 20.951 37.7395 21.1423L18.5411 29.0025L37.7399 36.8624C38.2068 37.0538 39.0839 37.052 39.5508 36.8587L58.515 29.0025V29.0025ZM40.2396 38.5217C39.3339 38.8967 37.9638 38.8996 37.0575 38.5281L17.074 30.3469C15.6419 29.7599 15.6419 28.2443 17.0744 27.658L37.0576 19.4765C37.9647 19.1053 39.3348 19.1082 40.2396 19.4834L59.9638 27.6544C61.3905 28.2451 61.3905 29.7599 59.964 30.3506L40.2396 38.5217ZM52.9254 45.8416C48.6188 48.3714 43.7114 49.7245 38.6042 49.7245C33.4905 49.7245 28.5775 48.3681 24.2672 45.8325C23.8388 45.5805 23.2871 45.7235 23.0351 46.1519C22.7831 46.5803 22.9261 47.1319 23.3545 47.3839C27.9396 50.0812 33.1674 51.5245 38.6042 51.5245C44.0342 51.5245 49.2559 50.0847 53.8371 47.3937C54.2657 47.1419 54.409 46.5904 54.1573 46.1618C53.9055 45.7332 53.354 45.5899 52.9254 45.8416Z" fill="#F5CB5C" stroke="#F5CB5C" stroke-width="1.5"/>
<path d="M59.2388 28.8334V41.8514C59.2388 42.3485 59.6417 42.7514 60.1388 42.7514C60.6358 42.7514 61.0388 42.3485 61.0388 41.8514V28.8334C61.0388 28.3363 60.6358 27.9333 60.1388 27.9333C59.6417 27.9333 59.2388 28.3363 59.2388 28.8334Z" fill="#F5CB5C" stroke="#F5CB5C" stroke-width="1.5"/>
</g>
<defs>
<filter id="filter0_d_78_507" x="0" y="0" width="78" height="78" filterUnits="userSpaceOnUse" color-interpolation-filters="sRGB">
<feFlood flood-opacity="0" result="BackgroundImageFix"/>
<feColorMatrix in="SourceAlpha" type="matrix" values="0 0 0 0 0 0 0 0 0 0 0 0 0 0 0 0 0 0 127 0" result="hardAlpha"/>
<feOffset dy="4"/>
<feGaussianBlur stdDeviation="2"/>
<feComposite in2="hardAlpha" operator="out"/>
<feColorMatrix type="matrix" values="0 0 0 0 0 0 0 0 0 0 0 0 0 0 0 0 0 0 0.25 0"/>
<feBlend mode="normal" in2="BackgroundImageFix" result="effect1_dropShadow_78_507"/>
<feBlend mode="normal" in="SourceGraphic" in2="effect1_dropShadow_78_507" result="shape"/>
</filter>
<clipPath id="clip0_78_507">
<rect width="45" height="45" fill="white" transform="translate(16 12)"/>
</clipPath>
</defs>
</svg>
