<svg width="58" height="58" viewBox="0 0 58 58" fill="none" xmlns="http://www.w3.org/2000/svg">
<g filter="url(#filter0_d_26_428)">
<rect x="4" width="50" height="50" rx="7" fill="#282829"/>
</g>
<path d="M47.2501 8.50736V40.4926C47.2501 41.2239 46.9594 41.9253 46.4423 42.4424C45.9254 42.9596 45.2239 43.25 44.4927 43.25H12.5074C11.7761 43.25 11.0747 42.9596 10.5576 42.4424C10.0405 41.9253 9.75 41.2239 9.75 40.4926V8.50736C9.75 7.77605 10.0405 7.07471 10.5576 6.55762C11.0747 6.04051 11.7761 5.75 12.5074 5.75H44.4927C45.2239 5.75 45.9254 6.04051 46.4423 6.55762C46.9594 7.07471 47.2501 7.77605 47.2501 8.50736ZM20.7794 20.0882H15.2647V37.7352H20.7794V20.0882ZM21.2757 14.022C21.2786 13.6049 21.1994 13.1913 21.0424 12.8048C20.8855 12.4183 20.6539 12.0665 20.361 11.7695C20.0681 11.4725 19.7195 11.236 19.3352 11.0737C18.951 10.9114 18.5385 10.8264 18.1213 10.8235H18.022C17.1738 10.8235 16.3602 11.1605 15.7604 11.7604C15.1605 12.3602 14.8235 13.1738 14.8235 14.022C14.8235 14.8704 15.1605 15.6839 15.7604 16.2838C16.3602 16.8836 17.1738 17.2206 18.022 17.2206C18.4392 17.2309 18.8543 17.1588 19.2437 17.0086C19.633 16.8584 19.9889 16.6329 20.291 16.3451C20.5932 16.0573 20.8357 15.7127 21.0047 15.3312C21.1736 14.9496 21.2657 14.5385 21.2757 14.1213V14.022ZM41.7353 27.0147C41.7353 21.7096 38.3603 19.6471 35.0074 19.6471C33.9096 19.5921 32.8165 19.8259 31.8372 20.3252C30.8581 20.8244 30.0267 21.5718 29.4265 22.4926H29.272V20.0882H24.0882V37.7352H29.6029V28.3492C29.5232 27.3881 29.8261 26.4341 30.4456 25.6948C31.0651 24.9554 31.9514 24.4904 32.9117 24.4008H33.1214C34.8751 24.4008 36.1765 25.5037 36.1765 28.283V37.7352H41.6912L41.7353 27.0147Z" stroke="#F5CB5C" stroke-width="2" stroke-linejoin="round"/>
<defs>
<filter id="filter0_d_26_428" x="0" y="0" width="58" height="58" filterUnits="userSpaceOnUse" color-interpolation-filters="sRGB">
<feFlood flood-opacity="0" result="BackgroundImageFix"/>
<feColorMatrix in="SourceAlpha" type="matrix" values="0 0 0 0 0 0 0 0 0 0 0 0 0 0 0 0 0 0 127 0" result="hardAlpha"/>
<feOffset dy="4"/>
<feGaussianBlur stdDeviation="2"/>
<feComposite in2="hardAlpha" operator="out"/>
<feColorMatrix type="matrix" values="0 0 0 0 0 0 0 0 0 0 0 0 0 0 0 0 0 0 0.25 0"/>
<feBlend mode="normal" in2="BackgroundImageFix" result="effect1_dropShadow_26_428"/>
<feBlend mode="normal" in="SourceGraphic" in2="effect1_dropShadow_26_428" result="shape"/>
</filter>
</defs>
</svg>
